<svg height="32" viewBox="0 0 32 32" width="32" xmlns="http://www.w3.org/2000/svg"><path d="m28.016 26.6c-.226-.228-.42-.36-.588-.408-.17-.05-.32-.014-.44.106l-.112.108c-1.16 1.16-2.52 2.076-4.024 2.714-1.56.66-3.22.996-4.928.996-1.71 0-3.368-.334-4.93-.994-1.506-.636-2.86-1.548-4.024-2.712-1.212-1.212-2.124-2.566-2.714-4.024-.574-1.424-.76-2.494-.82-2.844l-.016-.08c-.08-.412-.46-.44-1.008-.36-.228.04-.92.144-.856.64v.014c.186 1.154.51 2.286.966 3.364.734 1.73 1.78 3.284 3.12 4.62 1.334 1.336 2.89 2.384 4.62 3.116 1.794.76 3.7 1.144 5.664 1.144 1.96 0 3.866-.384 5.66-1.144 1.732-.732 3.288-1.78 4.624-3.12 0 0 .076-.072.116-.116.146-.16.274-.44-.308-1.02zm-10.112-23.174c-1.876 0-3.872.38-5.34 1.014-.154.06-.248.188-.268.366-.02.166.026.386.14.674.088.232.33.848.8.67 1.5-.572 3.16-.888 4.668-.888 1.714 0 3.376.34 4.94 1 1.24.524 2.414 1.284 3.688 2.388.092.08.192.12.292.12.25 0 .488-.24.692-.472.34-.38.574-.7.24-1.016-1.22-1.152-2.552-2.014-4.2-2.71-1.79-.76-3.692-1.14-5.652-1.14zm-2.556 15.866c0 .214.196.4.312.512l.036.036c.2.196.388.296.56.296.148 0 .236-.07.268-.1.088-.08 1.08-1.084 1.172-1.18l1.104 1.1c.104.12.214.174.344.18.176 0 .368-.106.572-.314.476-.488.24-.75.12-.88l-1.12-1.116 1.17-1.176c.256-.28.03-.572-.196-.8-.326-.324-.64-.41-.846-.22l-1.16 1.16-1.174-1.174c-.06-.06-.14-.09-.226-.09-.156 0-.34.104-.55.314-.36.36-.44.608-.25.806l1.174 1.172-1.17 1.166c-.096.096-.144.2-.14.306zm-7.446 1.732c.008.02.174.48.27.704.526 1.248 1.28 2.368 2.244 3.33.96.96 2.08 1.716 3.326 2.244 1.292.546 2.664.824 4.08.824 1.412 0 2.784-.28 4.076-.824 1.25-.528 2.37-1.284 3.33-2.244s1.72-2.08 2.246-3.33c.546-1.292.82-2.664.82-4.08 0-1.412-.274-2.784-.82-4.074-.528-1.248-1.284-2.368-2.246-3.33-.96-.96-2.08-1.716-3.328-2.244-1.29-.544-2.66-.82-4.076-.82-1.43 0-2.86.28-4.134.82-1.02.432-2.74 1.54-3.75 2.58l-.006.008v-8.62h14.48c.528-.006.528-.74.528-.984 0-.24 0-.98-.526-.984h-15.66c-.424 0-.688.354-.688.684v12.132c0 .392.488.674.94.772.886.188 1.09-.094 1.306-.394l.03-.04c.332-.49 1.366-1.53 1.376-1.54 1.61-1.614 3.766-2.506 6.07-2.506 2.292 0 4.444.89 6.06 2.5 1.616 1.62 2.508 3.766 2.508 6.04 0 2.286-.89 4.432-2.5 6.04-1.59 1.592-3.812 2.504-6.094 2.504-1.546 0-3.04-.412-4.32-1.192l.008-7.376c0-.98.428-2.052 1.14-2.86.82-.924 1.946-1.432 3.174-1.432 1.19 0 2.3.452 3.13 1.272.82.814 1.272 1.9 1.272 3.054 0 2.464-1.94 4.396-4.414 4.396-.48 0-1.346-.212-1.38-.22-.5-.15-.714.544-.784.774-.27.88.136 1.054.22 1.08.796.246 1.32.294 2 .294 3.496 0 6.34-2.844 6.34-6.34 0-3.468-2.84-6.288-6.334-6.288-1.708 0-3.314.654-4.52 1.84-1.15 1.13-1.81 2.64-1.81 4.134v.04c-.006.184-.008 4.608-.01 6.06l-.006-.008c-.66-.726-1.306-1.84-1.736-2.976-.172-.446-.552-.366-1.072-.206-.228.068-.92.28-.766.78l.004.006z"/></svg>