<svg height="32" viewBox="0 0 32 32" width="32" xmlns="http://www.w3.org/2000/svg"><path d="m15.377 9.826c.855 0 2.444-1.176 4.512-1.176 3.562 0 4.963 2.533 4.963 2.533s-2.739 1.401-2.739 4.8c0 3.831 3.411 5.153 3.411 5.153s-2.386 6.715-5.607 6.715c-1.48 0-2.631-.997-4.19-.997-1.589 0-3.166 1.034-4.192 1.034-2.944 0-6.66-6.368-6.66-11.487 0-5.037 3.147-7.677 6.098-7.677 1.915-.001 3.406 1.104 4.404 1.104zm.891-5.062c1.662-2.192 3.978-2.204 3.978-2.204s.344 2.062-1.309 4.049c-1.763 2.121-3.77 1.773-3.77 1.773s-.377-1.668 1.103-3.619h-.002z"/></svg>