<svg height="32" viewBox="0 0 32 32" width="32" xmlns="http://www.w3.org/2000/svg"><path d="m14.356 8.268c.576.805.866 1.776.866 2.905 0 1.162-.294 2.1-.874 2.808-.328.395-.803.757-1.434 1.081.959.357 1.684.914 2.174 1.68.488.772.732 1.699.732 2.794 0 1.129-.278 2.14-.839 3.035-.355.597-.797 1.095-1.331 1.507-.599.463-1.312.778-2.127.954-.818.168-1.705.254-2.661.254h-8.488v-19.051h9.104c2.295.032 3.923.71 4.877 2.033zm-10.223 1.279v4.196h4.578c.816 0 1.478-.156 1.993-.469.505-.319.763-.876.763-1.675 0-.891-.338-1.471-1.011-1.759-.58-.198-1.325-.294-2.226-.294h-4.097zm0 7.357v5.076h4.57c.816 0 1.453-.116 1.907-.338.828-.416 1.24-1.209 1.24-2.378 0-.994-.4-1.673-1.202-2.043-.446-.206-1.072-.313-1.881-.317h-4.635zm23.849-5.423c.973.443 1.776 1.135 2.411 2.085.566.843.938 1.812 1.11 2.916.095.645.135 1.574.118 2.79h-10.143c.057 1.419.546 2.407 1.461 2.977.553.353 1.223.528 2.003.528.83 0 1.505-.215 2.02-.647.286-.233.534-.551.753-.969h3.716c-.097.831-.549 1.684-1.35 2.55-1.248 1.364-2.995 2.052-5.24 2.052-1.852 0-3.485-.578-4.904-1.734-1.415-1.158-2.121-3.035-2.121-5.642 0-2.438.637-4.313 1.919-5.615 1.276-1.301 2.935-1.955 4.976-1.955 1.211 0 2.302.227 3.271.662zm-5.444 3.184c-.515.54-.836 1.264-.969 2.186h6.271c-.067-.98-.391-1.726-.973-2.23-.578-.505-1.297-.759-2.155-.759-.935 0-1.661.271-2.174.803zm-2.632-6.477h9.766v1.953h-9.766z"/></svg>