<svg height="32" viewBox="0 0 25 32" width="25" xmlns="http://www.w3.org/2000/svg"><path d="m14.554 15.339q.143 1.125-.902 1.804t-1.991.107q-.696-.304-.955-1.036t-.009-1.464.929-1.036q.643-.321 1.295-.214t1.143.634.491 1.205zm1.982-.375q-.25-1.911-2.018-2.929t-3.518-.232q-1.125.5-1.795 1.58t-.616 2.313q.071 1.625 1.384 2.768t2.955 1q1.625-.143 2.714-1.5t.893-3zm4.268-9.678q-.357-.482-1-.795t-1.036-.393-1.268-.223q-5.196-.839-10.107.036-.768.125-1.179.214t-.982.393-.893.768q.536.5 1.357.813t1.313.393 1.563.205q4.071.518 8 .018 1.125-.143 1.598-.214t1.295-.384 1.339-.83zm1.017 18.482q-.143.464-.277 1.366t-.25 1.5-.509 1.25-1.036 1.009q-1.536.857-3.384 1.277t-3.607.393-3.598-.33q-.821-.143-1.455-.321t-1.366-.482-1.304-.777-.929-1.098q-.446-1.714-1.018-5.214l.107-.286.321-.161q3.982 2.643 9.045 2.643t9.063-2.643q.375.107.429.411t-.089.804-.143.661zm3.233-17.161q-.464 2.982-1.982 11.696-.089.536-.482 1t-.777.714-.973.554q-4.5 2.25-10.893 1.571-4.429-.482-7.036-2.482-.268-.214-.455-.473t-.304-.625-.161-.607-.107-.705-.098-.625q-.161-.893-.473-2.679t-.5-2.884-.42-2.634-.393-2.821q.054-.464.313-.866t.563-.67.804-.536.821-.402.857-.33q2.232-.821 5.589-1.143 6.768-.661 12.071.893 2.768.821 3.839 2.179.286.357.295.911t-.098.964z"/></svg>