<svg height="32" viewBox="0 0 32 32" width="32" xmlns="http://www.w3.org/2000/svg"><path d="m27.866 12.584h-1.051s-.187 0-.217 0c-1.724 0-2.022-1.532-2.022-1.532l.039.029c-.201-4.941-3.956-8.865-9.087-8.897v.006h-4.101c-5.114.033-9.24 4.108-9.24 9.226v-.018 9.21c0 5.114 4.104 9.174 9.237 9.204v.003l9.235-.006c4.618-.096 9.153-4.087 9.153-9.201v-6.206c0-.982-.962-1.818-1.947-1.818zm-16.959-3.531c.015 0 .004.002.004.002h5.13c1.025.022 1.679.956 1.679 1.86s-.654 1.67-1.679 1.67h-5.13s-.051 0-.064 0c-.92 0-1.855-.779-1.855-1.697s.998-1.834 1.915-1.834zm9.481 13.925h-9.476v-.054s-.051 0-.064 0c-.92 0-1.839-.884-1.839-1.803 0-.917.916-1.646 1.836-1.646h.051 9.574c1.028 0 1.571.819 1.571 1.725 0 .902-.625 1.777-1.652 1.777z"/></svg>