<svg height="32" viewBox="0 0 32 32" width="32" xmlns="http://www.w3.org/2000/svg"><path d="m15.971 0c4.476 0 8.286 1.563 11.428 4.686 1.505 1.505 2.648 3.224 3.428 5.157.782 1.934 1.173 3.986 1.173 6.157 0 2.191-.386 4.243-1.157 6.156-.771 1.914-1.91 3.605-3.414 5.072-1.561 1.543-3.333 2.724-5.314 3.543-1.98.819-4.029 1.229-6.143 1.229s-4.138-.404-6.072-1.215c-1.933-.809-3.667-1.98-5.2-3.514s-2.7-3.261-3.5-5.186c-.8-1.924-1.2-3.951-1.2-6.085 0-2.114.405-4.148 1.214-6.1s1.986-3.7 3.529-5.243c3.048-3.104 6.79-4.657 11.228-4.657zm.058 2.886c-3.656 0-6.733 1.276-9.229 3.829-1.258 1.276-2.224 2.709-2.9 4.3-.677 1.591-1.014 3.252-1.014 4.986 0 1.715.337 3.366 1.014 4.957.677 1.592 1.642 3.011 2.9 4.258s2.675 2.2 4.258 2.857c1.581.657 3.238.986 4.971.986 1.714 0 3.375-.332 4.986-1 1.61-.668 3.061-1.629 4.357-2.886 2.494-2.438 3.741-5.495 3.741-9.172 0-1.771-.323-3.447-.971-5.029-.646-1.581-1.59-2.99-2.827-4.229-2.573-2.572-5.668-3.858-9.287-3.858zm-.2 10.458-2.143 1.114c-.229-.476-.509-.809-.842-1s-.643-.286-.929-.286c-1.428 0-2.143.943-2.143 2.828 0 .857.181 1.542.543 2.056s.896.772 1.601.772c.934 0 1.591-.457 1.972-1.372l1.971 1c-.419.781-1 1.395-1.742 1.843s-1.562.672-2.457.672c-1.428 0-2.582-.438-3.457-1.314s-1.314-2.095-1.314-3.657c0-1.524.443-2.733 1.329-3.628s2.005-1.343 3.357-1.343c1.982-.002 3.4.77 4.258 2.313zm9.228 0-2.114 1.114c-.229-.476-.511-.809-.843-1-.334-.19-.654-.286-.957-.286-1.428 0-2.143.943-2.143 2.828 0 .857.181 1.542.543 2.056s.895.772 1.601.772c.932 0 1.59-.457 1.97-1.372l2 1c-.438.781-1.029 1.395-1.77 1.843s-1.552.672-2.428.672c-1.448 0-2.604-.438-3.47-1.314-.868-.876-1.302-2.095-1.302-3.657 0-1.524.442-2.733 1.328-3.628s2.005-1.343 3.357-1.343c1.982-.002 3.392.77 4.229 2.313z"/></svg>