<svg height="32" viewBox="0 0 32 32" width="32" xmlns="http://www.w3.org/2000/svg"><path d="m27.354 4.639c-3.098-3.093-6.888-4.639-11.375-4.639-4.431 0-8.183 1.546-11.252 4.639-3.151 3.2-4.726 6.987-4.726 11.361s1.575 8.134 4.726 11.28c3.149 3.146 6.901 4.72 11.252 4.72 4.406 0 8.224-1.587 11.454-4.76 3.044-3.013 4.567-6.761 4.567-11.24s-1.549-8.267-4.646-11.361zm-2.003 20.521c-2.643 2.613-5.754 3.919-9.331 3.919-3.578 0-6.662-1.294-9.252-3.881-2.59-2.585-3.885-5.652-3.885-9.199 0-1.364.196-2.659.582-3.889l8.191 3.647h-1.803v2.491h3.748l.367.761v1.207h-4.114v2.49h4.114v3.617h3.981v-3.617h4.14v-2.302l5.224 2.326c-.535.87-1.189 1.68-1.965 2.429zm-3.682-4.943h-3.716v-1.207l.188-.364 3.529 1.571zm.423-3.313v-1.146h-2.489l4.063-7.484h-4.246l-2.797 6.194-1.485-.661-2.556-5.533h-4.245l1.762 3.289-5.283-2.353c.549-.87 1.212-1.702 1.994-2.492 2.51-2.56 5.58-3.84 9.212-3.84 3.63 0 6.715 1.28 9.251 3.84 2.563 2.534 3.844 5.627 3.844 9.28 0 1.353-.171 2.621-.511 3.804l-6.512-2.899z"/></svg>