<svg height="32" viewBox="0 0 32 32" width="32" xmlns="http://www.w3.org/2000/svg"><path d="m27.352 4.639c-3.096-3.093-6.889-4.639-11.373-4.639-4.432 0-8.184 1.546-11.254 4.639-3.151 3.2-4.726 6.987-4.726 11.361 0 4.372 1.575 8.133 4.726 11.279 3.151 3.148 6.901 4.721 11.254 4.721 4.405 0 8.222-1.587 11.454-4.761 3.044-3.014 4.567-6.76 4.567-11.239s-1.55-8.268-4.648-11.361zm-2.003 20.521c-2.643 2.613-5.754 3.918-9.33 3.918-3.578 0-6.662-1.294-9.252-3.881s-3.885-5.654-3.885-9.198c0-1.5.237-2.918.705-4.255l4.239 1.877h-.306v1.902h1.501c0 .269-.027.537-.027.804v.456h-1.473v1.901h1.74c.242 1.42.777 2.573 1.5 3.482 1.5 1.983 3.911 3.053 6.536 3.053 1.715 0 3.266-.509 4.178-1.017l-.643-2.972c-.563.294-1.821.696-3.052.696-1.34 0-2.598-.401-3.455-1.366-.402-.455-.697-1.072-.884-1.875h5.823l8.274 3.663c-.572 1.014-1.299 1.953-2.189 2.812zm-10.405-8.378-.035-.027.06.027zm4.982-1.259h.239v-1.902h-4.535l-1.842-.815c.159-.357.346-.675.566-.925.831-1.02 2.008-1.447 3.295-1.447 1.178 0 2.276.348 2.973.643l.75-3.054c-.965-.428-2.384-.803-4.017-.803-2.518 0-4.66 1.018-6.188 2.732-.339.392-.633.831-.899 1.296l-5.261-2.329c.51-.764 1.109-1.498 1.804-2.199 2.511-2.56 5.58-3.841 9.212-3.841 3.63 0 6.715 1.28 9.251 3.841 2.561 2.533 3.843 5.626 3.843 9.281 0 1.203-.136 2.339-.406 3.41l-8.783-3.887z"/></svg>