<svg height="32" viewBox="0 0 32 32" width="32" xmlns="http://www.w3.org/2000/svg"><path d="m15.972 0c4.494 0 8.29 1.548 11.385 4.643s4.643 6.88 4.643 11.357-1.524 8.219-4.572 11.228c-3.218 3.181-7.038 4.772-11.456 4.772-4.344 0-8.091-1.573-11.243-4.715s-4.729-6.904-4.729-11.285c0-4.38 1.572-8.171 4.715-11.371 3.086-3.087 6.838-4.629 11.257-4.629zm.043 2.886c-3.628 0-6.7 1.276-9.214 3.829-2.61 2.648-3.914 5.743-3.914 9.286s1.295 6.61 3.885 9.198c2.591 2.591 5.676 3.886 9.257 3.886s6.686-1.303 9.315-3.914c2.514-2.439 3.771-5.495 3.771-9.171 0-3.657-1.276-6.752-3.828-9.286-2.553-2.551-5.645-3.828-9.273-3.828zm-7.529 17.457v-8.857h4.4c2.171 0 3.257.999 3.257 3 0 .343-.052.671-.157.986s-.286.628-.543.943c-.257.314-.643.572-1.157.771s-1.123.3-1.828.3h-1.743v2.857l-2.229-.001zm2.199-7.2v2.686h1.886c.457 0 .8-.129 1.029-.386s.344-.576.344-.957c0-.895-.476-1.343-1.429-1.343l-1.829.001zm6.057 7.2v-8.857h3.429c1.409 0 2.514.362 3.315 1.085.799.724 1.198 1.838 1.198 3.343s-.401 2.619-1.198 3.343c-.802.723-1.906 1.085-3.315 1.085h-3.429zm2.202-7v5.143h1.285c.781 0 1.348-.233 1.7-.7s.529-1.09.529-1.871-.176-1.405-.529-1.871-.928-.7-1.729-.7z"/></svg>