<svg height="32" viewBox="0 0 32 32" width="32" xmlns="http://www.w3.org/2000/svg"><path d="m15.972 0c4.476 0 8.266 1.552 11.371 4.657 3.104 3.086 4.657 6.867 4.657 11.343 0 4.477-1.524 8.229-4.572 11.257-3.218 3.162-7.038 4.743-11.456 4.743-4.325 0-8.076-1.572-11.257-4.715-3.143-3.142-4.715-6.903-4.715-11.284 0-4.361 1.572-8.143 4.715-11.342 3.104-3.106 6.857-4.658 11.257-4.658zm.057 2.886c-3.637 0-6.714 1.286-9.229 3.857-2.61 2.648-3.914 5.734-3.914 9.256 0 3.563 1.295 6.628 3.885 9.2 2.591 2.591 5.676 3.886 9.257 3.886 3.561 0 6.667-1.304 9.314-3.914 2.514-2.438 3.771-5.494 3.771-9.171 0-3.656-1.276-6.742-3.828-9.257-2.534-2.572-5.62-3.857-9.257-3.857zm10.428 13.4.314.142v4.514l-.286.142-3.886 1.657-.172.058-.2-.056-8.657-3.572-4.143 1.715-4.085-1.771v-4.115l3.829-1.601-.028-.028v-4.514l4.343-1.914 9.8 4.057v3.972l3.171 1.315zm-4.543 5.256v-2.827h-.029v-.115l-7.343-3v2.915l7.343 3.029v-.029zm.485-3.714 2.573-1.057-2.372-1-2.515 1.057zm3.372 2.458v-2.771l-2.857 1.2v2.8l2.858-1.229z"/></svg>