<svg height="32" viewBox="0 0 32 32" width="32" xmlns="http://www.w3.org/2000/svg"><path d="m15.98 0c-4.432 0-8.184 1.546-11.255 4.64-3.151 3.2-4.726 6.987-4.726 11.36s1.575 8.135 4.726 11.28c3.151 3.147 6.902 4.72 11.255 4.72 4.406 0 8.223-1.587 11.454-4.76 3.043-3.014 4.566-6.761 4.566-11.24s-1.549-8.267-4.645-11.36c-3.098-3.094-6.889-4.64-11.374-4.64zm.04 2.88c3.631 0 6.715 1.28 9.252 3.841 2.563 2.533 3.843 5.626 3.843 9.28 0 3.68-1.254 6.734-3.764 9.16-2.643 2.614-5.755 3.921-9.332 3.921-3.578 0-6.662-1.296-9.251-3.881-2.591-2.587-3.885-5.654-3.885-9.2 0-3.547 1.308-6.64 3.925-9.28 2.51-2.561 5.58-3.841 9.211-3.841zm6.91 13.265c-.303 0-.577.183-.692.462l-.256.614-.712-5.989c-.047-.382-.373-.668-.761-.662-.384.008-.701.305-.733.689l-.275 3.319-.335-4.441c-.03-.389-.355-.693-.746-.693-.392-.001-.718.301-.749.691l-.226 2.898-.383-6.081c-.025-.396-.352-.704-.749-.704-.396.001-.723.309-.747.705l-.33 5.4-.278-4.276c-.025-.396-.351-.702-.747-.702s-.723.305-.749.701l-.339 5.173-.267-3.675c-.03-.39-.351-.693-.742-.696s-.72.296-.753.686l-.499 5.795-.115-.788c-.049-.326-.303-.583-.63-.633s-.647.12-.789.419l-.849 1.786h-2.833v1.499h3.308c.282 0 .541-.159.668-.41l.693 4.718c.056.375.385.651.764.64.38-.011.691-.306.726-.683l.242-2.811.366 5.053c.03.393.357.698.751.696s.72-.308.745-.7l.3-4.544.308 4.732c.025.395.354.701.749.7.396 0 .723-.309.747-.703l.317-5.192.291 4.631c.024.392.349.699.742.702s.722-.302.753-.692l.294-3.782.316 4.156c.029.391.352.692.742.694.392.003.719-.298.75-.688l.442-5.352.172 1.44c.04.34.302.607.642.655.339.046.665-.14.794-.456l1.162-2.801h3.258v-1.5l-3.759-.002zm-5.032.338h-1.416v1.416c0 .267-.216.483-.482.483-.267 0-.484-.216-.484-.483v-1.416h-1.415c-.267 0-.483-.216-.483-.482 0-.267.217-.483.483-.483h1.415v-1.416c0-.267.217-.483.484-.483s.482.216.482.483v1.416h1.416c.267 0 .483.216.483.483 0 .266-.216.482-.483.482z"/></svg>