<svg height="32" viewBox="0 0 32 32" width="32" xmlns="http://www.w3.org/2000/svg"><path d="m15.972 0c4.494 0 8.29 1.548 11.385 4.643s4.643 6.88 4.643 11.357-1.524 8.219-4.572 11.228c-3.218 3.181-7.038 4.772-11.456 4.772-4.344 0-8.091-1.573-11.243-4.715s-4.729-6.904-4.729-11.285c0-4.38 1.572-8.171 4.715-11.371 3.086-3.087 6.838-4.629 11.257-4.629zm.043 2.886c-3.628 0-6.7 1.276-9.214 3.829-2.61 2.648-3.914 5.743-3.914 9.286s1.295 6.61 3.885 9.198c2.591 2.591 5.676 3.886 9.257 3.886s6.686-1.303 9.315-3.914c2.514-2.439 3.771-5.495 3.771-9.171 0-3.657-1.276-6.752-3.828-9.286-2.553-2.551-5.645-3.828-9.273-3.828zm.242 3.428c.191-.019.358.034.501.157.142.125.223.282.242.471v.114l.428 6.914.314-3.829c0-.191.067-.352.198-.486s.296-.2.486-.2c.191 0 .352.067.486.2.133.133.2.295.2.486v.114l.369 5.143.372-4.143c.018-.171.091-.315.215-.428s.27-.171.442-.171.323.053.457.157c.134.105.21.243.23.415l.743 6.229.343-.828c.114-.286.333-.429.656-.429h3.743v1.372h-3.286l-1.171 2.857c-.134.343-.383.486-.742.428-.172-.019-.309-.086-.414-.2s-.167-.258-.186-.428l-.258-2.057-.485 5.971c-.02.171-.091.314-.215.427-.124.114-.271.172-.444.172-.171 0-.323-.057-.457-.172-.133-.114-.209-.256-.229-.427v-.086l-.399-4.944-.343 4.657c-.039.171-.12.314-.243.428-.124.114-.271.172-.444.172-.171 0-.324-.056-.457-.172s-.21-.258-.229-.428v-.086l-.372-5.572-.371 6.114v.086c0 .191-.068.357-.2.5s-.295.215-.486.215-.352-.072-.486-.215-.201-.308-.201-.5v-.057l-.371-5.657-.343 5.457v.085c-.039.172-.119.315-.242.428-.124.114-.271.171-.443.171s-.324-.056-.457-.171c-.133-.114-.21-.258-.229-.428v-.085h-.028v-.085l-.4-5.714-.315 3.657c-.019.172-.095.315-.229.428-.133.114-.286.172-.457.172s-.319-.052-.444-.157c-.124-.104-.205-.242-.243-.414l-.714-4.914-.085.171c-.114.248-.324.372-.629.372h-3.314v-1.372h2.886l.886-1.8c.133-.305.366-.434.7-.386s.528.233.585.557l.2 1.314.543-6.314c0-.191.066-.352.2-.486s.295-.2.486-.2.352.067.486.2.2.295.2.486v.114l.315 4.457.428-5.971v-.085c.018-.171.09-.314.214-.428s.271-.171.444-.171c.172 0 .323.057.457.171s.209.257.229.428v.085l.343 5.2.4-6.314v-.114c0-.171.062-.314.185-.428.126-.114.273-.181.445-.2z"/></svg>