<svg height="32" viewBox="0 0 32 32" width="32" xmlns="http://www.w3.org/2000/svg"><path d="m15.972 0c4.476 0 8.266 1.552 11.371 4.657 3.104 3.086 4.657 6.867 4.657 11.343 0 4.477-1.524 8.229-4.572 11.257-3.218 3.162-7.038 4.743-11.456 4.743-4.325 0-8.076-1.572-11.257-4.715-3.143-3.142-4.715-6.903-4.715-11.284 0-4.361 1.572-8.143 4.715-11.342 3.104-3.106 6.857-4.658 11.257-4.658zm.057 2.886c-3.637 0-6.714 1.286-9.229 3.857-2.61 2.648-3.914 5.734-3.914 9.256 0 3.563 1.295 6.628 3.885 9.2 2.591 2.591 5.676 3.886 9.257 3.886 3.561 0 6.667-1.304 9.314-3.914 2.514-2.438 3.771-5.494 3.771-9.171 0-3.656-1.276-6.742-3.828-9.257-2.534-2.572-5.62-3.857-9.257-3.857zm6.514 8.542c.247 0 .457.085.628.257.172.171.258.382.258.629v11.771c0 .247-.086.457-.258.628-.171.172-.381.258-.628.258h-8.714c-.248 0-.457-.085-.629-.258-.172-.172-.257-.381-.257-.628v-3.486h-3.486c-.248 0-.457-.085-.629-.257-.171-.171-.257-.381-.257-.629v-11.77c0-.229.075-.424.229-.585.152-.162.342-.261.571-.3h8.8c.247 0 .457.085.63.257.171.171.257.381.257.629v3.486h3.486zm-12.229 7.429h2.628v-6.543c0-.229.075-.424.229-.585.152-.161.334-.261.543-.3h3.601v-2.6h-7v10.028zm11.372-5.686h-7v10.029h7z"/></svg>