<svg height="32" viewBox="0 0 32 32" width="32" xmlns="http://www.w3.org/2000/svg"><path d="m16 6.79c-5.282 0-6.611 4.984-6.611 9.21s1.328 9.209 6.611 9.209c5.282 0 6.611-4.983 6.611-9.209s-1.328-9.21-6.611-9.21zm0 3.473c.215 0 .41.033.594.079.381.328.567.78.201 1.412l-3.518 6.465c-.108-.817-.123-1.62-.123-2.218 0-1.861.129-5.736 2.846-5.736zm2.633 2.98c.186.992.213 2.028.213 2.757 0 1.861-.129 5.737-2.845 5.737-.214 0-.411-.023-.594-.067-.035-.011-.067-.021-.101-.034-.056-.015-.115-.033-.168-.055-.605-.258-.986-.723-.437-1.547l3.932-6.79zm-2.667-13.243c-4.439 0-8.18 1.545-11.227 4.65-1.543 1.543-2.721 3.303-3.541 5.266-.8 1.944-1.198 3.97-1.198 6.084 0 2.134.399 4.16 1.198 6.084.8 1.925 1.961 3.656 3.485 5.198 1.543 1.524 3.274 2.699 5.199 3.518 1.943.802 3.97 1.2 6.085 1.2s4.17-.413 6.152-1.233c1.981-.82 3.748-1.997 5.311-3.541 1.506-1.467 2.645-3.148 3.406-5.052.78-1.924 1.165-3.983 1.165-6.174 0-2.171-.385-4.227-1.165-6.152-.781-1.942-1.924-3.66-3.428-5.165-3.144-3.123-6.964-4.684-11.44-4.684zm.067 2.88c3.619 0 6.706 1.283 9.277 3.854 1.238 1.239 2.188 2.655 2.835 4.236s.974 3.259.974 5.03c0 3.677-1.258 6.727-3.753 9.165-1.296 1.258-2.751 2.224-4.37 2.89-1.6.667-3.249.997-4.964.997-1.733 0-3.394-.326-4.974-.974-1.582-.667-3.001-1.619-4.258-2.858-1.258-1.257-2.228-2.677-2.913-4.258-.667-1.599-1.009-3.249-1.009-4.963 0-1.733.342-3.393 1.008-4.974.686-1.6 1.656-3.037 2.913-4.314 2.495-2.551 5.575-3.831 9.232-3.831z"/></svg>