<svg height="32" viewBox="0 0 32 32" width="32" xmlns="http://www.w3.org/2000/svg"><path d="m3.857 20.875 10.768 7.179v-6.411l-5.964-3.982zm-1.107-2.571 3.446-2.304-3.446-2.304v4.607zm14.625 9.75 10.768-7.179-4.804-3.214-5.964 3.982zm-1.375-8.804 4.857-3.25-4.857-3.25-4.857 3.25zm-7.339-4.911 5.964-3.982v-6.411l-10.768 7.179zm17.143 1.661 3.446 2.304v-4.607zm-2.465-1.661 4.804-3.214-10.768-7.179v6.411zm8.661-3.214v9.75q0 .732-.607 1.143l-14.625 9.75q-.375.232-.768.232t-.768-.232l-14.625-9.75q-.607-.411-.607-1.143v-9.75q0-.732.607-1.143l14.625-9.75q.375-.232.768-.232t.768.232l14.625 9.75q.607.411.607 1.143z"/></svg>