<svg height="32" viewBox="0 0 32 32" width="32" xmlns="http://www.w3.org/2000/svg"><path d="m22.839 28.321q-.089-.339-.429-.089-.536.393-1.554.696t-2.339.304q-2.304 0-3.446-.875-.089-.071-.232-.071-.196 0-.464.214-.125.107-.134.286t.134.357q.607.571 1.563.821t1.83.223 1.768-.08q.732-.071 1.509-.366t1.161-.536.509-.366q.214-.214.125-.518zm-.696-2.053q-.339-.839-.696-1.089-.411-.268-1.357-.268-.839 0-1.268.179-.518.214-1.393 1-.464.429-.214.786.161.143.313.08t.563-.42q.054-.036.188-.152t.188-.152.179-.125.205-.125.223-.089.268-.08.295-.045.366-.018q.482 0 .795.134t.411.259.241.393q.179.304.223.357t.223-.018q.411-.214.25-.607zm6.339-5.018q0-.393-.089-.795t-.295-.804-.607-.652-.938-.25q-.589 0-1.732.741t-2.304 1.491-1.804.75q-.482.018-1.134-.339t-1.357-.875-1.491-1.036-1.786-.875-1.982-.339q-2.054.018-3.518 1.402t-1.5 3.188q-.036 2 1.321 2.929.518.357 1.116.509t1.848.152q1.018 0 2.357-.58t2.393-1.268 2.143-1.259 1.661-.554q.464.018 1.161.563t1.277 1.196 1.214 1.205.991.571q.625.054 1.045-.25t.991-1.125q.5-.732.759-1.804t.259-1.893zm.947-2.857q0 2.929-1.107 5.438t-2.964 4.214-4.33 2.67-5.188.964-5.232-1.027-4.42-2.804-3.045-4.313-1.143-5.393q0-1.589.348-3.08t.875-2.598 1.259-2.116 1.402-1.679 1.402-1.241 1.152-.83.759-.438q.25-.143.911-.473t.973-.509.857-.536 1.08-.786q.643-.5 1.036-1.295t.536-2.241q2.304 2.768 3.321 3.446.786.518 2.321 1.214t2.304 1.179q.375.232.696.446t1.08.83 1.357 1.259 1.339 1.696 1.232 2.179.839 2.652.348 3.17z"/></svg>