<svg height="32" viewBox="0 0 32 32" width="32" xmlns="http://www.w3.org/2000/svg"><path d="m10.244 18.906c0 .742.112 1.427.339 2.044.242.595.56 1.12.953 1.604.409.454.878.875 1.424 1.211.54.333 1.119.606 1.739.833.617.227 1.257.379 1.905.499.665.091 1.323.152 1.961.152.825 0 1.604-.061 2.331-.182.726-.152 1.423-.333 2.119-.545.696-.242 1.364-.515 2.056-.817.669-.302 1.364-.639 2.06-1.03v6.57c-.787.393-1.568.723-2.331.999-.787.272-1.547.515-2.342.696s-1.591.332-2.409.423-1.664.136-2.528.136c-1.157 0-2.287-.136-3.368-.409-1.075-.265-2.089-.636-3.042-1.15-.95-.499-1.817-1.12-2.604-1.817-.795-.726-1.468-1.544-2.032-2.422-.571-.908-1.011-1.883-1.319-2.936-.311-1.06-.463-2.18-.463-3.39 0-1.271.182-2.482.53-3.633.348-1.158.848-2.218 1.508-3.186.657-.969 1.453-1.831 2.397-2.584.939-.745 2.001-1.366 3.185-1.836-.643.638-1.143 1.406-1.506 2.285-.363.881-.59 1.771-.688 2.658h11.033c0-1.115-.106-2.084-.348-2.916-.211-.833-.576-1.529-1.089-2.074-.515-.554-1.15-.969-1.953-1.241-.807-.272-1.763-.416-2.893-.416-1.333 0-2.664.189-3.996.598-1.332.384-2.594.939-3.793 1.651-1.207.712-2.312 1.544-3.311 2.501-1.014.968-1.862 2.009-2.543 3.144.136-1.315.432-2.573.833-3.769.407-1.196.939-2.308 1.574-3.346.635-1.014 1.393-1.938 2.25-2.77.854-.834 1.807-1.559 2.852-2.135 1.06-.585 2.166-1.056 3.377-1.363 1.21-.285 2.502-.445 3.857-.445.798 0 1.591.069 2.384.216.787.139 1.544.337 2.301.592 1.484.51 2.815 1.227 3.996 2.136 1.18.923 2.149 1.967 2.965 3.163.789 1.196 1.395 2.515 1.819 3.956.413 1.44.629 2.933.629 4.487v3.855l-19.82.001z"/></svg>