<svg height="32" viewBox="0 0 32 32" width="32" xmlns="http://www.w3.org/2000/svg"><path d="m11.456 3.26c0-.434.044-.694.784-.694h9.956c1.74 0 2.696 1.48 3.39 4.26l.566 2.22h1.696c.304-6.306.566-9.046.566-9.046s-4.26.48-6.784.48h-12.74l-6.822-.22v1.826l2.304.436c1.608.306 2 .654 2.13 2.132 0 0 .13 4.348.13 11.52 0 7.176-.13 11.48-.13 11.48 0 1.304-.52 1.78-2.13 2.088l-2.304.434v1.824l6.826-.22h11.39c2.568 0 8.524.22 8.524.22.13-1.566 1-8.652 1.13-9.434h-1.608l-1.696 3.868c-1.348 3.044-3.304 3.26-5.48 3.26h-6.478c-2.174 0-3.22-.868-3.22-2.74v-9.908s4.828 0 6.394.13c1.22.086 1.956.434 2.348 2.13l.52 2.26h1.87l-.13-5.694.26-5.74h-1.868l-.608 2.52c-.392 1.654-.654 1.96-2.348 2.132-2.22.22-6.436.176-6.436.176v-11.7z"/></svg>