<svg height="32" viewBox="0 0 32 32" width="32" xmlns="http://www.w3.org/2000/svg"><path d="m10.15 8.191c-.008-.03 0-1.955 0-1.955v-5.861l-7.799 7.816h5.85s1.959.027 1.949 0zm17.744-3.895c-.587-.975-3.656-1.632-5.248-1.632s-4.105 0-4.105 0-1.371-1.921-4.458-2.223c-2.49-.245-1.981.749-1.981 1.888v7.816h-7.801s-1.973-.524-1.973.836c0 2.523.336 10.738 5.783 11.554 6.444.965 7.414-.625 7.414-.977 0-1.463.25-3.174.25-3.174s2.499 2.939 5.345 2.832c2.793-.107 3.381 1.732 3.381 3.356v3.016s-.011 1.107-1.688 1.107c-1.675 0-3.099 0-3.099 0s-1.173-.123-1.173-1.344c0-1.219.739-1.545 1.41-1.545.669 0 1.173.082 1.173.082v-2.197s-5.265-.735-5.265 3.256c0 3.984 2.094 4.68 4.357 4.68s3.687 0 3.687 0 5.77-.059 5.77-12.752c0-12.695-1.193-13.6-1.778-14.578zm-6.714 10.998s.418-1.629 1.675-1.629 2.464 2.559 2.464 2.559-2.633-.93-4.139-.93z"/></svg>