<svg height="32" viewBox="0 0 32 32" width="32" xmlns="http://www.w3.org/2000/svg"><path d="m31.954 10.442-.371 2.377s-.53-4.402-1.179-6.047c-.995-2.521-1.438-2.501-1.441-2.498.667 1.694.546 2.604.546 2.604s-1.181-3.219-4.303-4.243c-3.459-1.134-5.33-.824-5.547-.765-.033 0-.064 0-.095 0 .026.002.05.005.076.007-.001.001-.003.001-.003.002.014.017 3.822.666 4.497 1.594 0 0-1.617 0-3.227.464-.073.021 5.923.749 7.148 6.74 0 0-.657-1.371-1.47-1.604.535 1.626.397 4.712-.112 6.245-.066.197-.133-.853-1.135-1.305.321 2.301-.019 5.952-1.616 6.957-.124.078 1.001-3.603.226-2.18-4.46 6.838-9.731 3.155-12.101 1.535 1.215.264 3.52-.041 4.541-.8.001-.001.002-.002.004-.003 1.108-.758 1.765-1.311 2.354-1.18s.982-.46.524-.985c-.459-.526-1.572-1.249-3.079-.855-1.063.278-2.379 1.454-4.389.264-1.543-.914-1.688-1.673-1.702-2.199.038-.186.086-.361.143-.52.178-.496.716-.646 1.015-.764.508.087.946.246 1.405.481.006-.153.008-.356-.001-.586.044-.088.017-.352-.054-.674-.041-.322-.107-.655-.211-.959h.001c.002-.001.003-.001.005-.002s.005-.004.007-.006c0-.001.001-.001.001-.002.003-.004.005-.008.006-.015.032-.144.376-.423.804-.722.383-.268.834-.553 1.19-.774.314-.195.554-.34.605-.378.019-.015.042-.032.068-.051.005-.004.009-.007.014-.011.003-.002.006-.005.009-.007.169-.135.421-.389.474-.924 0-.001 0-.002 0-.004.002-.016.003-.032.004-.048.001-.011.002-.023.002-.034 0-.009.001-.018.001-.027.001-.021.002-.043.002-.065 0-.001 0-.002 0-.004.001-.052 0-.106-.003-.163-.002-.032-.004-.06-.009-.086 0-.001-.001-.003-.001-.004-.001-.003-.001-.005-.002-.008-.001-.005-.002-.009-.004-.013 0-.001 0-.001-.001-.001-.002-.005-.004-.01-.005-.014 0 0 0 0 0-.001-.055-.128-.26-.177-1.108-.191-.001 0-.002 0-.002 0-.346-.006-.798-.006-1.391-.004-1.039.004-1.613-1.016-1.797-1.41.251-1.389.977-2.379 2.17-3.051.023-.013.018-.023-.009-.031.233-.141-2.82-.004-4.225 1.782-1.247-.31-2.333-.289-3.269-.069-.18-.005-.404-.027-.67-.083-.623-.564-1.514-1.606-1.562-2.85 0 0-.003.002-.008.006-.001-.012-.002-.024-.002-.036 0 0-1.897 1.458-1.613 5.434-.001.064-.002.125-.004.184-.514.696-.768 1.282-.787 1.411-.455.926-.917 2.32-1.292 4.437 0 0 .263-.833.79-1.777-.388 1.188-.693 3.036-.514 5.808 0 0 .047-.615.215-1.5.131 1.719.704 3.841 2.152 6.337 2.78 4.791 7.052 7.211 11.775 7.582.839.069 1.689.071 2.544.006.079-.006.157-.011.236-.018.968-.068 1.942-.214 2.914-.449 13.287-3.212 11.842-19.256 11.842-19.256z"/></svg>