<svg height="32" viewBox="0 0 23 32" width="23" xmlns="http://www.w3.org/2000/svg"><path d="m17.857 8.75.661-3.464q.089-.411-.161-.714t-.625-.304h-12.714q-.411 0-.688.304t-.277.661v19.661q0 .125.107.018l5.196-6.286q.411-.464.679-.598t.857-.134h4.268q.393 0 .661-.259t.321-.527q.429-2.321.661-3.411.071-.375-.205-.714t-.652-.339h-5.25q-.518 0-.857-.339t-.339-.857v-.75q0-.518.339-.848t.857-.33h6.179q.321 0 .625-.241t.357-.527zm4.054-3.964q-.268 1.304-.955 4.759t-1.241 6.25-.625 3.098q-.107.393-.161.58t-.25.58-.438.589-.688.375-1.036.179h-4.839q-.232 0-.393.179-.143.161-7.607 8.821-.393.446-1.045.509t-.866-.098q-.982-.393-.982-1.75v-25.179q0-.982.679-1.83t2.143-.848h15.857q1.696 0 2.268.946t.179 2.839zm0 0-2.821 14.107q.071-.304.625-3.098t1.241-6.25.955-4.759z"/></svg>