<svg height="32" viewBox="0 0 32 32" width="32" xmlns="http://www.w3.org/2000/svg"><path d="m16 4.108c3.869 0 4.33.015 5.857.085 1.413.065 2.183.299 2.692.498.633.234 1.2.604 1.668 1.088.48.468.852 1.036 1.086 1.667.2.511.435 1.281.497 2.692.073 1.528.086 1.987.086 5.859 0 3.87-.013 4.33-.086 5.857-.061 1.413-.297 2.183-.497 2.692-.488 1.265-1.489 2.265-2.754 2.754-.509.2-1.281.435-2.692.497-1.526.073-1.987.086-5.857.086-3.872 0-4.329-.013-5.859-.086-1.413-.061-2.181-.297-2.692-.497-.631-.233-1.198-.604-1.668-1.086-.481-.465-.851-1.036-1.087-1.668-.198-.509-.433-1.281-.497-2.692-.071-1.526-.085-1.987-.085-5.857 0-3.872.014-4.329.085-5.859.065-1.412.298-2.181.497-2.692.234-.63.604-1.198 1.088-1.667.468-.482 1.036-.853 1.667-1.088.511-.198 1.28-.433 2.692-.498 1.53-.069 1.986-.085 5.859-.085zm0-2.612c-3.939 0-4.431.018-5.979.088-1.543.071-2.595.315-3.517.673-.97.365-1.845.935-2.57 1.673-.74.725-1.308 1.6-1.675 2.569-.356.922-.602 1.976-.673 3.519-.069 1.545-.087 2.039-.087 5.977 0 3.936.018 4.432.088 5.977.071 1.543.316 2.595.673 3.521.365.968.935 1.845 1.673 2.568.725.739 1.6 1.308 2.569 1.673.922.356 1.976.604 3.517.671 1.55.076 2.04.09 5.98.09s4.432-.015 5.98-.09c1.541-.066 2.593-.314 3.52-.671 1.947-.754 3.486-2.294 4.24-4.241.356-.926.604-1.978.671-3.52.076-1.546.09-2.041.09-5.977 0-3.938-.015-4.431-.09-5.977-.066-1.544-.314-2.596-.671-3.519-.364-.97-.935-1.845-1.673-2.57-.724-.738-1.601-1.307-2.568-1.673-.926-.357-1.978-.602-3.52-.673-1.546-.071-2.041-.088-5.977-.088zm-.104 6.923c-4.083 0-7.394 3.309-7.394 7.395 0 4.083 3.311 7.39 7.394 7.39s7.397-3.308 7.397-7.39c0-4.087-3.314-7.395-7.397-7.395zm0 12.194c-2.649 0-4.8-2.149-4.8-4.8 0-2.652 2.151-4.8 4.8-4.8 2.652 0 4.801 2.149 4.801 4.8 0 2.652-2.149 4.8-4.801 4.8zm7.687-14.212c.956 0 1.725.771 1.725 1.726s-.769 1.727-1.725 1.727c-.952 0-1.73-.774-1.73-1.727 0-.956.777-1.726 1.73-1.726z"/></svg>