<svg height="32" viewBox="0 0 32 32" width="32" xmlns="http://www.w3.org/2000/svg"><path d="m21.607 19.161-2.857 2.857-2.696 2.714-.536.536q-1.161 1.143-2.705 1.554t-3.063.036q-.286 1.25-1.286 2.054t-2.304.804q-1.518 0-2.589-1.08t-1.071-2.598q0-1.286.795-2.286t2.027-1.286q-.393-1.536.018-3.089t1.571-2.714l.214-.214 2.696 2.714-.196.196q-.661.661-.661 1.589t.661 1.607q.661.661 1.589.661t1.589-.661l.536-.536 2.696-2.714 2.875-2.857zm-6.089-12.179.214.214-2.714 2.714-.214-.214q-.661-.661-1.589-.661t-1.589.661-.661 1.598.661 1.598l6.089 6.089-2.696 2.714-2.875-2.857-2.696-2.714-.536-.536q-1.214-1.196-1.607-2.848t.089-3.205q-1.25-.268-2.054-1.268t-.804-2.304q0-1.518 1.071-2.598t2.589-1.08q1.357 0 2.384.875t1.241 2.196q1.5-.357 3.027.063t2.67 1.563zm14.411 19.054q0 1.518-1.071 2.598t-2.589 1.08q-1.321 0-2.339-.839t-1.268-2.107q-1.536.5-3.205.107t-2.884-1.607l-.196-.214 2.696-2.714.214.214q.661.661 1.589.661t1.589-.661.661-1.589-.661-1.589l-6.107-6.107 2.714-2.714 5.571 5.571.518.536q1.143 1.143 1.563 2.688t.045 3.063q1.357.196 2.259 1.223t.902 2.402zm-.036-20.072q0 1.375-.911 2.411t-2.268 1.232q.464 1.518.054 3.152t-1.607 2.83l-.214.214-2.696-2.714.214-.214q.661-.661.661-1.589t-.661-1.589-1.589-.661-1.589.661l-6.107 6.107-2.714-2.714 2.875-2.857 2.714-2.714.518-.536q1.196-1.196 2.839-1.598t3.179.063q.196-1.339 1.223-2.25t2.42-.911q1.518 0 2.589 1.08t1.071 2.598z"/></svg>