<svg height="32" viewBox="0 0 32 32" width="32" xmlns="http://www.w3.org/2000/svg"><path d="m23.071 12.571q0 .107.179.732.179.518.446.884t.732.607.786.357.982.295q5.804 1.625 5.804 5.929 0 2.607-1.884 4.33t-4.545 1.723q-1.054 0-1.991-.33t-1.634-.813-1.375-1.33-1.125-1.563-.955-1.848-.777-1.839-.705-1.902-.634-1.696q-.571-1.446-1.098-2.384t-1.313-1.723-1.857-1.143-2.536-.357q-1.714 0-3.268.991t-2.464 2.58-.911 3.304q0 2.857 1.902 4.991t4.705 2.134q3.161 0 4.607-1.696 1-1.125 1.482-2.071l1.5 2.714q-.268.607-.786 1.25l.018.018q-2.339 2.714-6.929 2.714-2.625 0-4.813-1.411t-3.402-3.705-1.214-4.902q0-1.875.777-3.679t2.071-3.152 3.071-2.17 3.652-.821q1.554 0 2.839.339t2.205.893 1.696 1.429 1.295 1.768 1.045 2.089.902 2.223.893 2.33.982 2.268q1.714 3.571 4.161 3.571 1.446 0 2.473-.866t1.027-2.295q0-.75-.339-1.286t-.902-.821-1.295-.563-1.509-.482-1.563-.607-1.446-.929-1.161-1.464-.696-2.188q-.054-.286-.054-.589 0-1.964 1.563-3.429t3.545-1.393q1.393.054 2.152.259t1.616.955h-.018q.214.196.411.438t.464.643.339.491l-2.304 1.768q-.464-.875-.964-1.25v-.018q-.411-.375-1.732-.375-.875 0-1.5.589t-.625 1.482z"/></svg>