<svg height="32" viewBox="0 0 32 32" width="32" xmlns="http://www.w3.org/2000/svg"><path d="m26.349 27.44c-.127 0 .059.313-.127.251 0-.127 0-.251 0-.38h.167c.021.076.021.176.085.215.088-.072.036-.281.255-.215v.38c-.153.044-.06-.162-.086-.251-.101.024-.093.157-.127.251-.153.017-.095-.184-.166-.251zm-.337.25c-.151-.052-.064-.333-.216-.38h.381c-.113.067-.116.249-.165.38zm-2.541-12.576c.003.315-.014.612-.34.591-.534-.15.01-1.161.34-.591zm-.258-.849c-.249-.108-.528-.177-.887-.172-.1-.413-.226-1.039.084-1.311.596.168.7.828.803 1.484zm-.931 1.777c-.335.212-.9.02-.804-.462.292-.283.862-.046.847.38-.043 0-.038.051-.044.082zm-.128-8.345h.001zm-2.369 7.587c-.535.064-.928-.376-1.654-.257-.491.05-.78.296-1.27.34.367-1.037 2.484-1.094 2.924-.083zm-.127.676c-.722-.071-1.183.124-1.7.256.145-.594 1.365-.813 1.7-.256zm1.225-9.108c-.363-.302-.853-.478-1.4-.594-.084.118.379.271.258.425-.415-.178-1.265-.334-1.782-.128.207.052.571.163.555.297-.925-.101-1.967-.001-2.499.424.342-.006.685-.009.89.125-.78.143-1.448.389-1.952.804.26.05.571-.075.717 0-1.613.915-2.864 2.19-3.811 3.773 2.068-2.299 4.44-4.292 8.393-4.702.778-.006 1.412.131 1.901.42h.001-.001c-.236-.638-.784-.963-1.437-1.183-.093.065.27.26.167.338zm-6.524-.891c-1.885 1.728-3.547 3.681-4.828 6.017 3.259-3.687 6.133-7.763 11.305-9.534-1.516.142-2.548.778-3.637 1.355-.54-.394-1.022-.842-1.528-1.269-.207.061-.382.153-.59.212-.179-.047-.402-.049-.635-.042-3.043.726-4.839 2.7-6.651 4.659-1.717 2.068-3.33 4.237-3.938 7.415v.718c.064.205.097.439.169.639.031.007.048.031.04.084.351.413.817.706 1.231 1.06.45-.431.805-.948 1.396-1.234 1.396-4.492 4.254-7.746 7.667-10.081zm3.432 5.341c-2.123.092-3.082 1.763-2.67 4.104-.153-.045-.478-.494-.465-.292.169.947.727 1.499 1.31 2.034-.128.026-.364-.053-.419.036.377.257.729.541 1.228.675-.924.934-1.67 2.037-1.526 4.029.115.135.336-.505.298-.252-.012.744-.009 1.471.291 1.902.104-.276.232-.527.385-.759.027.819.168 1.529.552 1.989 0-.244.012-.461.085-.635.255.577.574 1.089.976 1.526.738.601 1.796.885 3.092.934 3.957-.306 6.253-2.275 7.282-5.509.217-.222.377-.501.338-.974-.13-.3-.589-.419-1.015-.295-.043-.647-.196-1.186-.425-1.653-1.856 1.687-4.334 2.754-7.789 2.835-.227.149-.364.38-.383.721 1.994.488 4.076-.18 5.631-.677-1.3.892-3.395 1.379-5.586 1.099.028.2.161.287.209.468.334.304.816.456 1.398.511h1.056c1.336-.151 2.434-.534 3.434-1.015.978-.464 1.88-1.221 2.667-1.739-1.626 1.919-3.793 3.296-7.376 3.261-1.107-.172-1.926-.639-1.985-1.861.076-.692.379-1.144.968-1.316.434.021.748-.076 1.189-.046 1.622-.159 3.012-.549 4.151-1.18.604-.285 1.088-.696 1.609-1.06.389-.497 1.036-.747 1.189-1.48-.1-.303-.311-.484-.723-.467-.595-.834-1.725-1.127-2.585-1.696-.008-.062-.066-.074-.084-.129-.49-1.502.078-4.061-1.564-4.404-1.35.06-1.527 1.294-2.879 1.356-.638-.004-1.297.024-1.867-.041zm8.175 15.246c-1.641 1.646-3.812 2.767-7.029 2.838-5.226-.215-8.088-2.788-10.252-6.058-.388.022-.713-.023-1.018-.083-2.053-.493-3.448-2.566-2.754-5.129-.521-.549-1.266-.877-1.692-1.527-.188-.4-.299-.88-.34-1.435.42-3.775 2.373-6.016 4.194-8.388 2.061-2.117 3.88-4.478 7.5-5.041.351.032.667.091.974.172.59.325 1.058.768 1.567 1.184 1.229-.701 2.514-1.357 4.316-1.481 1.7.041 2.668.81 2.844 2.372.001 1.907-.716 3.1-1.444 4.28.433.679.886 1.34 1.398 1.948.518.936.46 2.452.677 3.684 1.172.533 2.118 1.3 3.18 1.947.149.267.326.52.34.934-.04.487-.269.778-.513 1.06.201.264.291.639.384 1.015.432.214.859.438 1.06.885.034.123.008.304.082.386-.276 1.375-.851 2.459-1.353 3.602-.607 1.043-1.258 2.049-2.12 2.836zm-19.739-5.121c1.484 2.008 5.199.808 5.043-1.951-.03-.154-.061-.306-.044-.508-.219.086-.186.438-.382.548.071-.604-.047-1.39-.297-1.819-.082.21-.069.522-.253.632-.058-.687-.306-1.194-.679-1.564-.426-.18-.914-.303-1.566-.256-1.4.3-2.215 1.171-2.458 2.622v.685c.082.663.354 1.147.636 1.611zm10.422-17.328c-.014.188-.251.148-.299.296-.149-.162-.123-.5-.254-.679.151-.006.329.32.553.383zm-.635.465c-.098.134-.219.233-.386.298-.296-.16-.493-.409-.761-.595.309 0 .747.244 1.147.296zm-.634-.764c-.045.08-.217-.064-.344-.041-.12-.271-.085-.653.044-.889.133.276.17.649.299.929zm-.3 1.485c-.1.156-.299.208-.384.381-.504-.414-.952-.88-1.482-1.271 0-.251-.07-.436-.08-.679.676.494 1.272 1.071 1.946 1.569zm-5.041 14.652c.043.895-.337 1.364-1.228 1.316-.096-.104-.279-.111-.34-.255.604.043 1.218-.162 1.144-.932-.152-.524-.904-.446-.889-1.143.049-.233.169-.394.467-.376.12.159-.235.139-.169.376.233.443.9.459 1.016 1.015zm-.719-2.195c.238.189.758.861.252 1.143-.291-1.476-2.793-.9-2.498.713.012.305.136.486.169.767-.524-.052-.543-.616-.636-1.105.013-.441.164-.737.298-1.056.402-.405.818-.793 1.694-.717.282.038.489.158.721.255z"/></svg>