<svg height="32" viewBox="0 0 32 32" width="32" xmlns="http://www.w3.org/2000/svg"><path d="m10.734 6.984c-1.77 2.088-2.914 5.176-2.994 8.64v.752c.08 3.464 1.224 6.552 2.994 8.64 2.294 2.98 5.706 4.87 9.52 4.87 2.34 0 4.534-.714 6.408-1.96-2.828 2.534-6.562 4.074-10.662 4.074-.256 0-.51-.006-.76-.02-8.486-.394-15.24-7.4-15.24-15.98 0-8.84 7.164-16 16-16h.06c4.074.016 7.788 1.554 10.604 4.072-1.876-1.24-4.068-1.96-6.412-1.96-3.812 0-7.224 1.892-9.52 4.872zm21.266 9.016c0 4.74-2.06 8.996-5.336 11.926-4.104 2-7.928.6-9.194-.274 4.03-.884 7.076-5.76 7.076-11.652 0-5.896-3.046-10.768-7.076-11.654 1.264-.872 5.09-2.272 9.194-.274 3.276 2.928 5.336 7.188 5.336 11.928z"/></svg>