<svg height="32" viewBox="0 0 32 32" width="32" xmlns="http://www.w3.org/2000/svg"><path d="m.016 15.56c0-7.454 6.054-14.44 14.036-15.44 5.72-.666 10.046 1.53 13.04 4.392 2.792 2.66 4.456 6.056 4.856 10.05.332 3.994-.532 7.456-2.86 10.72-2.328 3.192-6.92 6.72-12.64 6.72h-7.784v-15.376c.068-3.394 1.2-6.324 5.32-7.72 3.594-1.066 7.786.93 9.05 4.724 1.328 4.06-.6 6.79-2.86 8.454-2.264 1.664-5.79 1.664-8.12.066v5.26c1.532.73 3.46.93 4.86.86 5.052-.73 8.98-3.592 10.64-7.92 1.732-4.59.534-9.914-3.06-13.24-4.32-3.53-9.046-4.394-14.1-1.932-3.526 1.796-5.988 5.456-6.588 9.448v17.374h-3.724l-.066-16.44z"/></svg>