<svg height="32" viewBox="0 0 32 32" width="32" xmlns="http://www.w3.org/2000/svg"><path d="m19.857 8.964q0-2.839-4.232-2.839h-1.25q-.571 0-1.063.384t-.616.938l-1.125 4.929q-.036.089-.036.286 0 .429.304.705t.732.277h.946q1.232 0 2.295-.232t2.009-.732 1.491-1.455.545-2.259zm10.786 2.715q0 4.732-3.929 7.643-3.911 2.875-10.929 2.875h-1.089q-.571 0-1.054.384t-.607.938l-1.304 5.643q-.143.643-.723 1.098t-1.241.455h-3.804q-.554 0-.946-.357t-.393-.911q0-.179.232-1.161h2.696q.607 0 1.143-.42t.679-1.009l1.304-5.643q.143-.589.67-1.018t1.134-.429h1.089q6.964 0 10.839-2.857t3.875-7.518q0-2.304-.911-3.696 3.268 1.643 3.268 5.982zm-3.268-3.304q0 4.714-3.946 7.643-3.893 2.875-10.929 2.875h-1.071q-.571 0-1.063.393t-.616.946l-1.304 5.625q-.143.643-.714 1.098t-1.232.455h-3.821q-.554 0-.938-.348t-.384-.92q0-.143.036-.357l5.357-23.232q.143-.643.723-1.098t1.241-.455h7.929q1.214 0 2.232.071t2.152.268 2.027.536 1.723.902 1.384 1.321.884 1.848.33 2.429z"/></svg>