<svg height="32" viewBox="0 0 32 32" width="32" xmlns="http://www.w3.org/2000/svg"><path d="m14.286 21.165c-.84 4.405-1.866 8.629-4.906 10.835-.938-6.659 1.378-11.659 2.453-16.968-1.834-3.088.221-9.299 4.09-7.768 4.76 1.883-4.122 11.477 1.84 12.675 6.226 1.251 8.766-10.8 4.907-14.718-5.578-5.661-16.237-.131-14.925 7.97.318 1.981 2.365 2.582.818 5.315-3.57-.79-4.635-3.606-4.498-7.36.221-6.142 5.52-10.443 10.835-11.038 6.723-.754 13.032 2.467 13.901 8.79.981 7.136-3.032 14.866-10.222 14.309-1.947-.149-2.765-1.114-4.293-2.042z"/></svg>