<svg height="32" viewBox="0 0 35 32" width="35" xmlns="http://www.w3.org/2000/svg"><path d="m14.839 17.214q0 1-.723 1.714t-1.723.714q-1.018 0-1.75-.714t-.732-1.714q0-1.018.741-1.75t1.741-.732 1.723.732.723 1.75zm8.232-2.482q1 0 1.723.732t.723 1.75q0 1-.723 1.714t-1.723.714q-1.018 0-1.75-.714t-.732-1.714q0-1.018.741-1.75t1.741-.732zm12.358-.196q0 1.107-.554 2.036t-1.482 1.464q.089.589.089 1.089 0 2.161-1.223 4.116t-3.527 3.455q-2.232 1.464-5.098 2.241t-5.991.777q-3.143 0-6.009-.777t-5.08-2.241q-2.304-1.5-3.527-3.446t-1.223-4.125q0-.518.089-1.179-.857-.554-1.375-1.455t-.518-1.955q0-1.679 1.179-2.857t2.857-1.179q1.482 0 2.643.982 4.429-2.821 10.571-2.929l2.393-7.554q.071-.25.313-.384t.509-.08l6.196 1.464q.393-.893 1.223-1.446t1.83-.554q1.375 0 2.348.973t.973 2.348-.973 2.357-2.348.982q-1.357 0-2.33-.964t-.991-2.339l-5.625-1.321-2.071 6.536q5.839.25 10 2.964 1.143-1.036 2.696-1.036 1.679 0 2.857 1.179t1.179 2.857zm-5.715-13.161q-.804 0-1.375.571t-.571 1.375.571 1.375 1.375.571 1.375-.571.571-1.375-.571-1.375-1.375-.571zm-28.339 13.161q0 1.196.911 1.982.875-2.339 3.214-4.196-.643-.446-1.464-.446-1.107 0-1.884.777t-.777 1.884zm26.607 11.018q2-1.304 3.063-2.964t1.063-3.464-1.063-3.455-3.063-2.955q-2.071-1.339-4.741-2.063t-5.598-.723-5.598.723-4.741 2.063q-2 1.304-3.063 2.955t-1.063 3.455 1.063 3.464 3.063 2.964q2.071 1.339 4.741 2.063t5.598.723 5.598-.723 4.741-2.063zm5.054-8.929q1.018-.821 1.018-2.089 0-1.107-.777-1.884t-1.884-.777q-.875 0-1.536.5 2.339 1.875 3.179 4.25zm-10.572 6.571q.196-.196.482-.196t.482.196.196.491-.196.491q-1.768 1.768-5.696 1.768h-.036q-3.929 0-5.696-1.768-.196-.196-.196-.491t.196-.491.482-.196.482.196q1.375 1.375 4.732 1.375h.036q3.357 0 4.732-1.375z"/></svg>