<svg height="32" viewBox="0 0 32 32" width="32" xmlns="http://www.w3.org/2000/svg"><path d="m16 2c-.752 0-1.491.056-2.213.163-.009-.024-.02-.048-.031-.072.401-.313.611-.745.52-1.173-.117-.549-.7-.918-1.451-.918-.162 0-.327.018-.49.052-.943.2-1.567.894-1.421 1.58.089.417.447.729.943.856-.001.03-.001.061.001.092-6.269 1.798-10.857 7.573-10.857 14.42 0 8.284 6.716 15 15 15s15-6.716 15-15-6.716-15-15-15zm-4.597-.472c-.085-.398.39-.85 1.036-.987.129-.027.259-.041.386-.041.501 0 .897.215.962.522.05.235-.096.488-.356.684-.22-.155-.501-.223-.784-.162-.283.06-.511.235-.649.464-.318-.077-.547-.253-.595-.48zm12.64 23.515c-1.374 1.374-3.038 2.352-4.853 2.88l-1.325-2.149-.336 2.499c-.503.067-1.013.102-1.529.102-3.038 0-5.895-1.183-8.043-3.332-1.374-1.374-2.352-3.038-2.88-4.853l2.149-1.325-2.499-.336c-.067-.503-.102-1.013-.102-1.529 0-3.038 1.183-5.895 3.332-8.043 1.374-1.374 3.038-2.352 4.853-2.88l1.325 2.149.336-2.499c.503-.067 1.013-.102 1.529-.102 3.038 0 5.895 1.183 8.043 3.332 1.374 1.374 2.352 3.038 2.88 4.853l-2.149 1.325 2.499.336c.067.503.102 1.013.102 1.529 0 3.038-1.183 5.895-3.332 8.043zm-.265-15.821-6.156 4.678c-.458-.239-.965-.377-1.482-.398l-1.596-3.349-.096 3.708c-.415.204-.784.489-1.09.842l-1.972-.699 1.44 1.517c-.198.422-.308.876-.326 1.338l-3.349 1.596 3.711.096c.012.024.024.048.037.071l-4.678 6.156 6.156-4.678c.458.239.965.377 1.482.398l1.596 3.349.096-3.708c.415-.204.785-.489 1.09-.842l1.972.699-1.44-1.517c.198-.422.308-.876.326-1.338l3.349-1.596-3.71-.096c-.012-.024-.024-.048-.037-.071l4.678-6.156zm-8.402 4.844c.21-.045.42-.066.627-.066.13 0 .258.008.384.025l.003.001v-.001c.273.036.537.109.785.216l-2.236 1.699-1.699 2.236c-.074-.175-.133-.359-.174-.552-.345-1.621.69-3.214 2.311-3.558zm2.19 5.493c-.283.173-.599.303-.942.376-.21.045-.42.066-.627.066-.13 0-.258-.009-.385-.025h-.002c-.273-.036-.537-.109-.785-.215l2.236-1.699 1.699-2.236c.074.175.133.359.174.552.272 1.278-.314 2.538-1.368 3.183z"/></svg>