<svg height="32" viewBox="0 0 32 32" width="32" xmlns="http://www.w3.org/2000/svg"><path d="m28.166 16.033c0-6.923-5.613-12.536-12.538-12.536-.647 0-1.279.063-1.899.158-1.251-1.068-2.87-1.717-4.642-1.717-3.947 0-7.15 3.202-7.15 7.15 0 1.612.539 3.095 1.44 4.29-.184.857-.287 1.744-.287 2.656 0 6.927 5.612 12.54 12.536 12.54.889 0 1.758-.096 2.594-.273 1.257 1.095 2.894 1.763 4.692 1.763 3.948 0 7.15-3.201 7.15-7.15 0-1.952-.783-3.718-2.053-5.007.093-.615.156-1.236.156-1.873zm-6.688 5.46c-.493.702-1.217 1.251-2.168 1.648-.951.4-2.079.597-3.382.597-1.566 0-2.856-.271-3.873-.815-.719-.39-1.305-.912-1.756-1.566-.45-.651-.676-1.286-.676-1.902 0-.359.136-.664.405-.918.271-.256.616-.383 1.033-.383.338 0 .627.098.86.299.233.197.434.493.599.882.203.465.421.851.654 1.162.233.312.565.57.989.771.426.203.985.304 1.675.304.953 0 1.725-.203 2.319-.611.594-.407.893-.915.893-1.526 0-.482-.16-.875-.481-1.176-.321-.302-.735-.532-1.245-.692-.508-.158-1.184-.328-2.038-.506-1.138-.245-2.091-.532-2.858-.858-.767-.33-1.378-.776-1.826-1.342-.451-.568-.676-1.272-.676-2.111 0-.803.237-1.514.714-2.137.474-.621 1.162-1.102 2.065-1.435.901-.335 1.959-.501 3.177-.501.972 0 1.815.11 2.523.331.711.221 1.299.517 1.768.884.467.369.81.755 1.027 1.159s.324.798.324 1.181c0 .352-.136.669-.403.951-.271.28-.609.422-1.013.422-.368 0-.647-.086-.838-.254s-.398-.445-.621-.829c-.288-.549-.634-.98-1.038-1.287-.403-.307-1.052-.462-1.947-.462-.827 0-1.495.167-2.003.501-.51.333-.762.736-.762 1.207 0 .292.086.544.259.755.172.213.41.393.714.546.3.153.608.271.918.361.309.084.821.211 1.535.376.893.192 1.701.405 2.426.637s1.341.513 1.849.843c.51.333.906.752 1.19 1.258.285.506.427 1.128.427 1.864 0 .878-.247 1.672-.74 2.374z"/></svg>