<svg height="32" viewBox="0 0 32 32" width="32" xmlns="http://www.w3.org/2000/svg"><path d="m30.944 17.088c-.354-1.124-1.323-1.905-2.656-1.888-.505.006-.961.124-1.401.277-.709.248-2.119.715-2.119.715s-.972-3.072-1.476-4.589c-.116-.348-.348-1.043-.348-1.043s.775-.294 1.19-.408c.742-.204 1.512-.384 2.138-.776.886-.555 1.56-1.744 1.152-3.104-.337-1.121-1.305-1.916-2.592-1.92-.7-.003-1.308.212-1.9.448-.534.212-1.62.544-1.62.544s-.318-.736-.435-1.143c-.213-.741-.383-1.529-.781-2.153-.568-.89-1.717-1.569-3.104-1.152-1.124.338-1.92 1.3-1.92 2.592 0 .627.174 1.179.381 1.713.231.598.611 1.807.611 1.807l-5.6 1.856s-.441-1.199-.62-1.844c-.146-.527-.312-1.045-.596-1.484-.56-.864-1.776-1.553-3.136-1.12-1.088.346-1.899 1.348-1.888 2.624.005.645.258 1.248.448 1.824.188.567.383 1.123.576 1.664-1.776.773-4.26.839-4.576 3.072v.864c.345 1.408 1.416 2.598 3.2 2.272 1.013-.185 3.04-.992 3.04-.992l1.856 5.632s-2.357.594-3.328 1.216c-.887.568-1.566 1.73-1.12 3.136.353 1.113 1.315 1.933 2.656 1.888 1.236-.041 2.333-.813 3.488-1.024.454 1.064.544 2.389 1.184 3.36.565.857 1.781 1.561 3.168 1.088 1.062-.362 1.9-1.357 1.856-2.656-.041-1.218-.848-2.33-1.024-3.488 1.901-.595 3.761-1.231 5.664-1.824.624 1.753.757 3.771 2.496 4.416 1.984.737 3.916-.8 3.68-2.912-.061-.545-.341-1.083-.512-1.6-.175-.528-.293-1.059-.512-1.568 1.011-.518 2.369-.551 3.36-1.184.86-.549 1.54-1.801 1.12-3.136zm-16.992 2.624-1.824-5.664 5.632-1.792 1.856 5.6z"/></svg>