<svg height="32" viewBox="0 0 32 32" width="32" xmlns="http://www.w3.org/2000/svg"><path d="m16.161 27.749c-.071 0-.138-.003-.19-.005-.041.003-.083.005-.125.005-1.49 0-2.487-.705-3.366-1.327-.63-.445-1.225-.865-1.921-.981-.342-.057-.682-.085-1.011-.085-.592 0-1.06.092-1.402.159-.21.041-.392.076-.532.076-.147 0-.325-.033-.399-.286-.059-.2-.101-.394-.142-.581-.102-.467-.176-.752-.351-.779-1.869-.288-2.973-.713-3.193-1.228-.023-.054-.036-.108-.039-.162-.009-.154.1-.288.251-.313 1.484-.245 2.804-1.029 3.923-2.333.867-1.009 1.292-1.974 1.338-2.08.002-.005.004-.01.007-.014.216-.438.259-.816.128-1.124-.241-.568-1.038-.821-1.566-.988-.131-.041-.255-.081-.354-.12-.468-.185-1.237-.575-1.135-1.114.075-.393.594-.667 1.014-.667.117 0 .22.021.307.061.475.222.902.335 1.269.335.457 0 .677-.174.731-.223-.013-.244-.029-.501-.045-.745v-.003c-.107-1.705-.241-3.828.302-5.045 1.625-3.643 5.07-3.926 6.087-3.926.027 0 .443-.004.443-.004.019 0 .039-.001.06-.001 1.02 0 4.473.284 6.098 3.929.543 1.218.409 3.342.301 5.049l-.005.082c-.015.232-.028.451-.04.664.05.046.252.206.663.222.35-.013.752-.126 1.195-.333.137-.064.288-.078.392-.078.156 0 .314.03.446.085l.007.003c.376.133.622.4.627.68.005.261-.189.652-1.144 1.028-.098.039-.223.078-.354.12-.528.168-1.325.421-1.566.988-.131.308-.088.686.128 1.123.003.005.004.01.007.015.066.156 1.674 3.822 5.261 4.412.151.025.26.16.251.313-.003.055-.016.11-.04.164-.218.512-1.323.936-3.192 1.225-.176.027-.25.311-.351.775-.042.192-.084.38-.143.577-.054.186-.175.277-.37.277h-.029c-.126 0-.306-.023-.532-.067-.395-.077-.838-.148-1.402-.148-.329 0-.669.029-1.011.085-.696.116-1.29.536-1.919.98-.881.623-1.878 1.328-3.368 1.328z"/></svg>