<svg height="32" viewBox="0 0 32 32" width="32" xmlns="http://www.w3.org/2000/svg"><path d="m16 .64c-8.483 0-15.36 6.877-15.36 15.36 0 3.878 1.437 7.421 3.808 10.122 2.403-2.403 5.694-3.752 9.472-3.63 4.819.157 8.624 2.438 10.805 6.15 4.008-2.771 6.635-7.398 6.635-12.642 0-8.483-6.877-15.36-15.36-15.36zm7.509 20.835c-.27.448-.85.586-1.296.315-3.558-2.173-8.032-2.664-13.302-1.461-.506.117-1.014-.2-1.128-.71-.117-.504.198-1.013.707-1.128 5.768-1.318 10.715-.749 14.706 1.686.445.272.587.853.314 1.298zm1.854-4.357c-.341.557-1.069.73-1.622.387-4.07-2.501-10.275-3.226-15.09-1.765-.626.189-1.285-.165-1.472-.786-.189-.626.163-1.285.786-1.472 5.499-1.672 12.336-.862 17.011 2.01.555.346.73 1.069.387 1.626zm.159-4.513c-4.88-2.901-12.93-3.165-17.589-1.752-.749.229-1.539-.194-1.766-.942-.226-.749.197-1.542.942-1.766 5.35-1.624 14.24-1.31 19.858 2.026.674.4.896 1.269.498 1.942-.402.67-1.269.891-1.942.493zm-11.7 14.48c-2.162-.069-3.96.773-5.274 2.349 2.206 1.227 4.747 1.926 7.451 1.926 1.304 0 2.57-.163 3.779-.469-1.158-2.379-3.179-3.717-5.957-3.806z"/></svg>