<svg height="32" viewBox="0 0 32 32" width="32" xmlns="http://www.w3.org/2000/svg"><path d="m32 16c0 8.837-7.163 16-16 16s-16-7.163-16-16 7.163-16 16-16 16 7.163 16 16zm-15.426-4.188c-1.556.648-4.668 1.988-9.332 4.02-.756.3-1.154.596-1.19.884-.06.486.55.678 1.38.94l.35.11c.816.266 1.916.576 2.486.588.52.012 1.098-.2 1.736-.64 4.358-2.942 6.608-4.428 6.748-4.46.1-.024.24-.052.332.032.094.082.084.24.074.282-.06.258-2.454 2.482-3.692 3.634-.386.36-.66.614-.716.672-.123.126-.246.247-.37.367l-.006.005c-.76.732-1.328 1.28.03 2.176.654.432 1.178.786 1.7 1.142.568.388 1.136.774 1.872 1.258.186.12.366.25.54.374.662.472 1.26.896 1.994.828.428-.04.87-.44 1.094-1.64.53-2.834 1.572-8.972 1.812-11.502.004-.059.007-.128.007-.198 0-.152-.012-.302-.035-.448l.002.016c-.02-.174-.104-.326-.227-.433l-.001-.001c-.167-.117-.374-.186-.598-.186-.008 0-.016 0-.024 0h.001c-.6.01-1.526.332-5.968 2.18z"/></svg>