<svg height="32" viewBox="0 0 32 32" width="32" xmlns="http://www.w3.org/2000/svg"><path d="m22.429 6.846c-.977-1.121-1.565-2.582-1.565-4.179h-1.225c.315 1.746 1.355 3.244 2.79 4.179z"/><path d="m11.096 15.873c-2.122 0-3.848 1.727-3.848 3.851 0 1.48.841 2.768 2.066 3.411-.458-.631-.73-1.405-.73-2.247 0-2.124 1.726-3.851 3.848-3.851.396 0 .779.068 1.138.179v-4.681c-.371-.05-.749-.081-1.138-.081-.068 0-.13.006-.198.006v3.591c-.365-.111-.742-.179-1.138-.179z"/><path d="m25.899 8.901v3.56c-2.375 0-4.578-.761-6.372-2.049v9.318c0 4.65-3.78 8.439-8.432 8.439-1.794 0-3.464-.57-4.831-1.529 1.54 1.653 3.737 2.693 6.168 2.693 4.646 0 8.432-3.783 8.432-8.439v-9.318c1.794 1.288 3.996 2.049 6.372 2.049v-4.582c-.464 0-.909-.05-1.336-.142z"/><path d="m19.527 19.73v-9.318c1.794 1.288 3.996 2.049 6.372 2.049v-3.56c-1.373-.291-2.579-1.034-3.47-2.056-1.435-.935-2.469-2.433-2.796-4.179h-3.353l-.006 18.37c-.074 2.056-1.769 3.709-3.842 3.709-1.287 0-2.419-.638-3.124-1.604-1.225-.65-2.066-1.932-2.066-3.412 0-2.124 1.726-3.851 3.848-3.851.396 0 .779.068 1.138.18v-3.591c-4.553.099-8.228 3.839-8.228 8.427 0 2.217.86 4.235 2.264 5.746 1.367.96 3.037 1.529 4.831 1.529 4.646 0 8.432-3.789 8.432-8.439z"/></svg>