<svg height="32" viewBox="0 0 32 32" width="32" xmlns="http://www.w3.org/2000/svg"><path d="m29.929 24v2.286q0 .464-.339.804t-.804.339h-25.143q-.464 0-.804-.339t-.339-.804v-2.286q0-.464.339-.804t.804-.339h25.143q.464 0 .804.339t.339.804zm0-9.143v2.286q0 .464-.339.804t-.804.339h-25.143q-.464 0-.804-.339t-.339-.804v-2.286q0-.464.339-.804t.804-.339h25.143q.464 0 .804.339t.339.804zm0-9.143v2.286q0 .464-.339.804t-.804.339h-25.143q-.464 0-.804-.339t-.339-.804v-2.286q0-.464.339-.804t.804-.339h25.143q.464 0 .804.339t.339.804z"/></svg>