<svg height="32" viewBox="0 0 32 32" width="32" xmlns="http://www.w3.org/2000/svg"><path d="m17.879 24.676c-.528-.307-.89-.716-1.084-1.232-.195-.512-.612-1.674-.612-3.483v-5.073h7.59v-5.453h-7.59v-7.731h-3.186c-.204 1.611-.251 2.141-.786 3.185-.537 1.042-1.249 2.413-2.137 3.156-.884.744-2.111 1.472-3.355 1.871v4.973h3.66v8.015c0 1.428.151 2.516.454 3.267.303.753.848 1.462 1.634 2.128.784.665 2.523 1.541 2.523 1.541s1.397.54 2.842.54c1.274 0 2.462-.126 3.559-.379s2.725-.853 4.078-1.483v-4.92c-1.586 1.026-3.587 1.698-5.185 1.698-.904 0-1.704-.207-2.404-.621z"/></svg>