<svg height="32" viewBox="0 0 32 32" width="32" xmlns="http://www.w3.org/2000/svg"><path d="m15.656 25.052h1.914s.576-.064.872-.38c.274-.294.266-.84.266-.84s-.04-2.568 1.152-2.946c1.174-.374 2.68 2.48 4.28 3.576 1.208.832 2.126.652 2.126.652l4.274-.06s2.234-.14 1.174-1.896c-.086-.144-.616-1.3-3.176-3.676-2.68-2.488-2.324-2.086.904-6.388 1.966-2.62 2.752-4.22 2.506-4.904-.234-.652-1.68-.48-1.68-.48l-4.812.03s-.36-.05-.62.108c-.26.154-.426.516-.426.516s-.76 2.026-1.78 3.752c-2.14 3.64-3 3.83-3.348 3.604-.814-.528-.61-2.116-.61-3.244 0-3.526.534-4.996-1.04-5.376-.526-.126-.91-.21-2.248-.224-1.72-.02-3.17.006-3.992.408-.548.268-.97.866-.714.9.32.04 1.04.194 1.42.714.496.67.48 2.176.48 2.176s.28 4.15-.66 4.666c-.652.354-1.54-.368-3.452-3.668-.98-1.69-1.716-3.56-1.716-3.56s-.144-.348-.4-.536c-.306-.226-.736-.3-.736-.3l-4.574.034s-.684.02-.936.32c-.224.264-.02.812-.02.812s3.58 8.374 7.636 12.596c3.716 3.87 7.936 3.616 7.936 3.616z"/></svg>