<svg height="32" viewBox="0 0 32 32" width="32" xmlns="http://www.w3.org/2000/svg"><path d="m23.33 19.176c-.4-.2-2.354-1.156-2.72-1.288-.364-.134-.63-.2-.896.2-.264.394-1.028 1.286-1.26 1.55s-.464.296-.86.1c-.4-.2-1.684-.62-3.204-1.968-1.184-1.05-1.98-2.348-2.214-2.746-.232-.396-.026-.61.174-.808.18-.18.4-.464.6-.696.196-.232.26-.396.396-.66.132-.266.066-.496-.034-.696s-.896-2.148-1.228-2.94c-.32-.774-.65-.668-.896-.68-.23-.012-.496-.014-.76-.014-.268 0-.7.1-1.064.494-.364.4-1.392 1.356-1.392 3.306s1.426 3.834 1.624 4.1c.2.264 2.808 4.266 6.8 5.98.952.41 1.692.654 2.272.836.952.3 1.82.26 2.506.16.766-.116 2.356-.96 2.688-1.886.334-.926.334-1.72.234-1.886s-.364-.266-.764-.464zm-7.262 9.864h-.008c-2.374 0-4.706-.636-6.74-1.836l-.48-.286-5.014 1.308 1.34-4.86-.32-.5c-1.324-2.1-2.024-4.526-2.02-7.016 0-7.266 5.94-13.18 13.246-13.18 3.54.004 6.86 1.376 9.36 3.868 2.504 2.49 3.88 5.8 3.88 9.324-.006 7.266-5.946 13.18-13.246 13.18zm11.27-24.398c-3.01-2.986-7.01-4.638-11.274-4.642-8.778 0-15.924 7.112-15.93 15.856 0 2.794.732 5.52 2.126 7.928l-2.26 8.216 8.446-2.204c2.328 1.26 4.948 1.928 7.614 1.93h.008c8.78 0 15.928-7.114 15.932-15.86 0-4.234-1.654-8.22-4.66-11.216z"/></svg>