<svg height="32" viewBox="0 0 32 32" width="32" xmlns="http://www.w3.org/2000/svg"><path d="m16.088 17.996c-1.246 2.57-2.95 6.052-3.796 7.62-.82 1.43-1.5 1.24-2.04.04-1.87-4.42-5.712-12.168-7.52-16.512-.334-.8-.586-1.314-.824-1.516-.24-.2-.736-.32-1.492-.36-.28-.034-.416-.102-.416-.212v-.606l.068-.06c1.23-.006 7.188 0 7.188 0l.068.06v.576c0 .16-.1.236-.3.236l-.75.03c-.644.028-.966.22-.966.576 0 .166.068.44.22.8 1.44 3.51 6.412 14 6.412 14l.18.046 3.208-6.4c-.392-.864-.64-1.42-.64-1.42l-2.208-4.322s-.424-.866-.57-1.154c-.968-1.92-.946-2.02-1.926-2.152-.274-.036-.416-.07-.416-.206v-.61l.08-.06h5.712l.15.048v.604c0 .14-.1.208-.3.208l-.412.06c-1.046.08-.876.508-.18 1.892l2.114 4.326 2.34-4.666c.39-.852.31-1.066.148-1.264-.092-.11-.404-.29-1.08-.316l-.266-.03c-.068 0-.13-.02-.192-.068-.06-.04-.092-.1-.092-.17v-.574l.08-.06c1.66-.01 5.38 0 5.38 0l.064.06v.58c0 .16-.09.236-.266.236-.866.04-1.044.126-1.36.584-.174.248-.516.784-.87 1.384l-3.04 5.686-.086.18 3.716 7.6.226.064 5.852-13.89c.204-.56.172-.96-.088-1.19-.26-.228-.448-.364-1.126-.392l-.55-.024c-.066 0-.13-.024-.192-.07-.06-.044-.092-.1-.092-.17v-.58l.084-.056h6.612l.068.06v.576c0 .16-.09.236-.266.236-.866.04-1.508.228-1.924.56-.42.34-.74.806-.976 1.412 0 0-5.38 12.32-7.224 16.416-.706 1.34-1.4 1.22-2.008-.04-.76-1.572-2.348-5.04-3.512-7.604z"/></svg>