<svg fill="none" height="21" viewBox="0 0 110 21" width="110" xmlns="http://www.w3.org/2000/svg" xmlns:xlink="http://www.w3.org/1999/xlink"><clipPath id="a"><path d="m0 .299007h110v20h-110z"/></clipPath><g clip-path="url(#a)" fill="#000"><path d="m19.9579 1.23475-.602.91229c4.0518 1.68421 5.6725 4.72514 5.6725 7.99996 0 1.6375-.4399 3.1111-1.2966 3.1111-2.8015 0-8.8213 0-10.604 0-1.4355 0-1.8754-.5146-1.2271-1.8245 1.1576-2.31581 4.6306-6.73686 6.7838-9.40352.3241-.39766.5788-1.00585-.5557-1.309945-1.1576-.304094-3.0099-.444445-4.5843-.444445-7.98777.023392-13.5445 4.37427-13.5445 10.01171 0 5.1696 4.81583 10.0117 13.5214 10.0117 3.8434 0 8.5666-1.0994 11.2292-4.1638h-2.2922c-2.6163 2.386-5.9966 2.924-8.9139 2.924-7.01535 0-11.46073-3.6959-11.46073-8.7719 0-4.70177 5.02421-8.91229 11.36813-8.91229.7641 0 1.0187.16374.2084 1.16959-1.6207 2.03508-4.51486 6.08187-5.88089 8.4444-1.45864 2.5264.02316 4.5848 3.31089 4.5848h13.2898c.8104 0 1.2966-.4678 1.7597-1.3333.3936-.6784.9724-2.0819.9724-3.9532 0-3.81288-2.8247-7.32165-7.1543-9.05265z"/><path d="m106.62 9.53881c-1.922 0-6.321 0-9.0068 0 .3009-1.16959 1.1808-1.96491 2.8708-1.96491h8.613v-1.96491s-4.492 0-9.1685 0c-5.2326 0-6.4597 3.74269-6.4597 5.87131h11.1602c1.528 0 1.528 2.0819.046 2.0819-1.528 0-12.3176 0-12.3176 0v-7.95321h-3.7045v7.95321s-4.1212 0-6.1587 0c-1.6438 0-2.3384-.7953-2.3384-2.0351 0-1.4971 0-5.91811 0-5.91811h-5.9504l-5.3251 3.39181-4.5843-3.39181c-5.1863 0-5.1632 0-13.1973 0-3.8202 0-6.5291 2.24561-6.8533 5.07601h2.4774c-.9956.655-1.7596 1.731-2.1995 2.9006-3.7971 0-6.9459 0-7.8026 0-1.4818 0-2.1532-.7719-2.1532-2.2222 0-.9591 0-5.75441 0-5.75441h-3.7277v4.88891c0 3.1111 1.6671 5.0526 5.4642 5.0526h26.0008l5.3483-3.3918 4.5843 3.4152h5.4873l-7.1543-5.2865 5.8346-3.67256v5.59066c0 1.731 2.2227 3.3918 4.237 3.3918h25.978c4.515-.0234 4.491-6.05849 0-6.05849zm-44.9866 4.07019s-6.2977 0-12.6184 0c.1389-1.076.6714-2.1287 2.4079-2.1287h7.8257v-1.94149h-10.4189c.1853-.79532.9956-1.94152 2.871-1.94152h8.2656v-1.07602l5.9504 4.37423z"/></g></svg>